#!OML:ASF F:\VICON\USERDATA\INSTALL\rory3\rory3.ASF
:FULLY-SPECIFIED
:DEGREES
48
root 0.932745 17.9406 -20.5212 -3.94096 -1.71752 1.14217
lowerback 10.2523 -0.0858652 -2.9337
upperback 0.621182 -0.389622 1.2081
thorax -5.07738 -0.112627 2.97456
lowerneck -15.3022 -2.61567 -1.76391
upperneck 20.7522 -2.95275 -1.07221
head 9.04918 -1.64294 -0.433229
rclavicle 1.46604e-015 1.98785e-015
rhumerus -33.4027 -6.17985 -82.5299
rradius 33.1937
rwrist -1.16824
rhand -15.8452 20.1343
rfingers 7.12502
rthumb 10.3495 -9.59099
lclavicle 1.46604e-015 1.98785e-015
lhumerus -36.7103 -4.17648 80.89
lradius 34.2952
lwrist 3.62573
lhand -20.7443 37.4629
lfingers 7.12502
lthumb 5.62125 67.3683
rfemur -29.0853 -2.0693 21.2111
rtibia 67.988
rfoot -9.22882 -4.63802
rtoes -11.5846
lfemur -5.1322 -2.91278 -26.0641
ltibia 30.1742
lfoot -18.0951 0.854839
ltoes -11.329
49
root 0.934742 17.9429 -20.3645 -3.8975 -1.6556 1.30604
lowerback 10.3466 0.0381367 -2.89995
upperback 1.01231 -0.230732 1.01319
thorax -4.73223 -0.0484612 2.72628
lowerneck -17.3017 -2.67027 -1.51189
upperneck 21.4579 -3.10849 -0.822638
head 9.66459 -1.66512 -0.448144
rclavicle 1.53685e-014 8.34896e-015
rhumerus -32.6283 -6.9844 -82.6098
rradius 33.1242
rwrist -1.01655
rhand -16.0266 20.3038
rfingers 7.12502
rthumb 10.1745 -9.43018
lclavicle 1.53685e-014 8.34896e-015
lhumerus -35.1625 -5.09555 80.6905
lradius 34.3767
lwrist 3.98189
lhand -22.3647 34.0222
lfingers 7.12502
lthumb 4.05658 63.9634
rfemur -29.7694 -2.16728 21.0936
rtibia 66.2
rfoot -9.45175 -4.68243
rtoes -10.6273
lfemur -4.36791 -3.13541 -26.378
ltibia 29.8051
lfoot -18.3357 1.17286
ltoes -11.0638
50
root 0.93277 17.9387 -20.2099 -3.83714 -1.63027 1.29566
lowerback 10.3642 -0.198698 -3.18967
upperback 0.506829 -0.567933 1.3122
thorax -5.24398 -0.188449 3.25747
lowerneck -15.2841 -2.43598 -2.03042
upperneck 20.9709 -2.71497 -0.732945
head 9.13036 -1.51651 -0.246237
rclavicle 2.86995e-015 5.96354e-015
rhumerus -33.7148 -6.00499 -82.4014
rradius 33.2863
rwrist -0.973665
rhand -15.8415 20.5945
rfingers 7.12502
rthumb 10.3531 -9.13062
lclavicle 2.86995e-015 5.96354e-015
lhumerus -36.222 -4.94286 80.8735
lradius 34.8893
lwrist 5.02745
lhand -22.5143 32.17
lfingers 7.12502
lthumb 3.91213 62.1138
rfemur -30.412 -2.12618 21.1918
rtibia 64.2425
rfoot -9.77816 -4.9485
rtoes -10.1134
lfemur -3.61215 -3.37634 -26.4922
ltibia 29.3537
lfoot -18.5185 1.59052
ltoes -10.886
51
root 0.930046 17.9253 -20.0493 -3.84157 -1.80449 1.26087
lowerback 10.3799 -0.0848539 -3.0577
upperback 0.788822 -0.405007 1.20966
thorax -4.97086 -0.121868 3.04866
lowerneck -16.088 -2.5583 -1.5577
upperneck 20.9227 -2.953 -0.878764
head 9.25201 -1.60466 -0.415108
rclavicle 6.83322e-015 2.78299e-015
rhumerus -33.2679 -6.57216 -82.5221
rradius 33.2663
rwrist -0.869365
rhand -15.1397 20.9022
rfingers 7.12502
rthumb 11.03 -8.78803
lclavicle 6.83322e-015 2.78299e-015
lhumerus -35.3156 -5.99883 80.8314
lradius 35.1777
lwrist 6.97024
lhand -19.9958 35.0731
lfingers 7.12502
lthumb 6.34384 64.9581
rfemur -30.8961 -1.91734 21.3133
rtibia 62.1434
rfoot -10.1684 -5.21127
rtoes -10.1008
lfemur -2.77223 -3.45168 -26.5685
ltibia 28.8873
lfoot -18.8039 1.91127
ltoes -10.6332
52
root 0.929084 17.9225 -19.8889 -3.80409 -1.86387 1.32335
lowerback 10.3123 -0.125037 -3.11712
upperback 0.902864 -0.461778 1.22429
thorax -4.80855 -0.153376 3.1038
lowerneck -16.1873 -2.54131 -1.46298
upperneck 20.5415 -2.93257 -0.960928
head 9.13494 -1.59587 -0.453557
rclavicle -2.85753e-015 2.38542e-015
rhumerus -33.1158 -6.47072 -82.583
rradius 33.2853
rwrist -0.858175
rhand -14.8287 19.6931
rfingers 7.12502
rthumb 11.33 -9.98081
lclavicle -2.85753e-015 2.38542e-015
lhumerus -34.6384 -6.0499 80.5511
lradius 35.4251
lwrist 6.97367
lhand -27.982 17.6582
lfingers 7.12502
lthumb -1.36853 47.6336
rfemur -31.2994 -1.82569 21.2941
rtibia 59.833
rfoot -10.2399 -5.48619
rtoes -10.6263
lfemur -1.98249 -3.60433 -26.7611
ltibia 28.4557
lfoot -19.0619 2.24876
ltoes -10.7283
53
root 0.923462 17.9221 -19.7342 -3.6995 -1.88222 1.40221
lowerback 10.2771 -0.180622 -3.30217
upperback 1.04577 -0.55052 1.30679
thorax -4.62979 -0.198677 3.30571
lowerneck -16.9396 -2.50748 -1.54271
upperneck 20.6884 -2.85898 -0.913013
head 9.32635 -1.56173 -0.427424
rclavicle -9.19379e-015 -5.1684e-015
rhumerus -32.8671 -6.20359 -82.6235
rradius 33.3925
rwrist -0.841594
rhand -13.5967 19.0953
rfingers 7.12502
rthumb 12.518 -10.5097
lclavicle -9.19379e-015 -5.1684e-015
lhumerus -33.8711 -5.49816 80.0677
lradius 35.8922
lwrist 5.11082
lhand -28.3776 18.1911
lfingers 7.12502
lthumb -1.75064 48.1637
rfemur -31.7632 -1.71083 21.2675
rtibia 57.3736
rfoot -10.1527 -6.02399
rtoes -11.4078
lfemur -1.31527 -3.88549 -26.9564
ltibia 28.1148
lfoot -19.2959 2.49079
ltoes -9.90008
54
root 0.918993 17.9177 -19.5776 -3.5219 -1.95597 1.32287
lowerback 10.1448 -0.321724 -3.46455
upperback 0.64957 -0.743866 1.53764
thorax -4.95079 -0.275251 3.67006
lowerneck -15.3084 -2.41677 -1.78881
upperneck 20.1761 -2.6959 -0.969097
head 8.8534 -1.51145 -0.356804
rclavicle 5.64051e-015 4.77083e-015
rhumerus -33.8722 -5.4395 -82.5147
rradius 33.7533
rwrist -0.836768
rhand -12.5694 18.9903
rfingers 7.12502
rthumb 13.5082 -10.5516
lclavicle 5.64051e-015 4.77083e-015
lhumerus -34.5966 -5.20494 79.9431
lradius 36.5617
lwrist 4.54158
lhand -24.7743 29.4845
lfingers 7.12502
lthumb 1.72955 59.4573
rfemur -32.2467 -1.51642 21.4399
rtibia 54.7062
rfoot -9.94409 -6.81786
rtoes -12.4139
lfemur -0.702606 -4.03414 -26.9683
ltibia 27.7069
lfoot -19.5205 2.82007
ltoes -10.1468
